<svg id="visual" viewBox="0 0 900 300" width="900" height="300" xmlns="http://www.w3.org/2000/svg" xmlns:xlink="http://www.w3.org/1999/xlink" version="1.1"><path d="M0 163L25 153.5C50 144 100 125 150 107.5C200 90 250 74 300 70C350 66 400 74 450 89C500 104 550 126 600 117C650 108 700 68 750 61.5C800 55 850 82 875 95.5L900 109L900 0L875 0C850 0 800 0 750 0C700 0 650 0 600 0C550 0 500 0 450 0C400 0 350 0 300 0C250 0 200 0 150 0C100 0 50 0 25 0L0 0Z" fill="#323031"></path><path d="M0 205L25 202C50 199 100 193 150 184C200 175 250 163 300 169.5C350 176 400 201 450 223C500 245 550 264 600 236.5C650 209 700 135 750 121C800 107 850 153 875 176L900 199L900 107L875 93.5C850 80 800 53 750 59.5C700 66 650 106 600 115C550 124 500 102 450 87C400 72 350 64 300 68C250 72 200 88 150 105.5C100 123 50 142 25 151.5L0 161Z" fill="#393a4b"></path><path d="M0 301L25 301C50 301 100 301 150 301C200 301 250 301 300 301C350 301 400 301 450 301C500 301 550 301 600 301C650 301 700 301 750 301C800 301 850 301 875 301L900 301L900 197L875 174C850 151 800 105 750 119C700 133 650 207 600 234.5C550 262 500 243 450 221C400 199 350 174 300 167.5C250 161 200 173 150 182C100 191 50 197 25 200L0 203Z" fill="#084c61"></path></svg>