<svg id="visual" viewBox="0 0 900 300" width="900" height="300" xmlns="http://www.w3.org/2000/svg" xmlns:xlink="http://www.w3.org/1999/xlink" version="1.1"><path d="M0 19L25 18.5C50 18 100 17 150 18.5C200 20 250 24 300 29C350 34 400 40 450 39.5C500 39 550 32 600 30C650 28 700 31 750 33.5C800 36 850 38 875 39L900 40L900 0L875 0C850 0 800 0 750 0C700 0 650 0 600 0C550 0 500 0 450 0C400 0 350 0 300 0C250 0 200 0 150 0C100 0 50 0 25 0L0 0Z" fill="#db3a34"></path><path d="M0 94L25 82.5C50 71 100 48 150 38C200 28 250 31 300 41C350 51 400 68 450 67.5C500 67 550 49 600 48.5C650 48 700 65 750 68C800 71 850 60 875 54.5L900 49L900 38L875 37C850 36 800 34 750 31.5C700 29 650 26 600 28C550 30 500 37 450 37.5C400 38 350 32 300 27C250 22 200 18 150 16.5C100 15 50 16 25 16.5L0 17Z" fill="#cd2b62"></path><path d="M0 145L25 134C50 123 100 101 150 88C200 75 250 71 300 79C350 87 400 107 450 107.5C500 108 550 89 600 89.5C650 90 700 110 750 108.5C800 107 850 84 875 72.5L900 61L900 47L875 52.5C850 58 800 69 750 66C700 63 650 46 600 46.5C550 47 500 65 450 65.5C400 66 350 49 300 39C250 29 200 26 150 36C100 46 50 69 25 80.5L0 92Z" fill="#aa3a84"></path><path d="M0 184L25 168C50 152 100 120 150 128C200 136 250 184 300 198.5C350 213 400 194 450 169.5C500 145 550 115 600 115.5C650 116 700 147 750 158C800 169 850 160 875 155.5L900 151L900 59L875 70.5C850 82 800 105 750 106.5C700 108 650 88 600 87.5C550 87 500 106 450 105.5C400 105 350 85 300 77C250 69 200 73 150 86C100 99 50 121 25 132L0 143Z" fill="#794a94"></path><path d="M0 226L25 233C50 240 100 254 150 259.5C200 265 250 262 300 257.5C350 253 400 247 450 240.5C500 234 550 227 600 228.5C650 230 700 240 750 235.5C800 231 850 212 875 202.5L900 193L900 149L875 153.5C850 158 800 167 750 156C700 145 650 114 600 113.5C550 113 500 143 450 167.5C400 192 350 211 300 196.5C250 182 200 134 150 126C100 118 50 150 25 166L0 182Z" fill="#435290"></path><path d="M0 256L25 263C50 270 100 284 150 286C200 288 250 278 300 270.5C350 263 400 258 450 261C500 264 550 275 600 281.5C650 288 700 290 750 285C800 280 850 268 875 262L900 256L900 191L875 200.5C850 210 800 229 750 233.5C700 238 650 228 600 226.5C550 225 500 232 450 238.5C400 245 350 251 300 255.5C250 260 200 263 150 257.5C100 252 50 238 25 231L0 224Z" fill="#0f527c"></path><path d="M0 301L25 301C50 301 100 301 150 301C200 301 250 301 300 301C350 301 400 301 450 301C500 301 550 301 600 301C650 301 700 301 750 301C800 301 850 301 875 301L900 301L900 254L875 260C850 266 800 278 750 283C700 288 650 286 600 279.5C550 273 500 262 450 259C400 256 350 261 300 268.5C250 276 200 286 150 284C100 282 50 268 25 261L0 254Z" fill="#084c61"></path></svg>