<svg id="visual" viewBox="0 0 900 300" width="900" height="300" xmlns="http://www.w3.org/2000/svg" xmlns:xlink="http://www.w3.org/1999/xlink" version="1.1"><rect x="0" y="0" width="900" height="300" fill="#177E89"></rect><path d="M0 227L30 237C60 247 120 267 180 250C240 233 300 179 360 171.5C420 164 480 203 540 224.5C600 246 660 250 720 227.2C780 204.3 840 154.7 870 129.8L900 105L900 301L870 301C840 301 780 301 720 301C660 301 600 301 540 301C480 301 420 301 360 301C300 301 240 301 180 301C120 301 60 301 30 301L0 301Z" fill="#DB3A34"></path></svg>