<svg id="visual" viewBox="0 0 900 300" width="900" height="300" xmlns="http://www.w3.org/2000/svg" xmlns:xlink="http://www.w3.org/1999/xlink" version="1.1"><rect x="0" y="0" width="900" height="300" fill="#FFC857"></rect><path d="M0 138L30 134.3C60 130.7 120 123.3 180 115.5C240 107.7 300 99.3 360 95.5C420 91.7 480 92.3 540 101C600 109.7 660 126.3 720 142.3C780 158.3 840 173.7 870 181.3L900 189L900 301L870 301C840 301 780 301 720 301C660 301 600 301 540 301C480 301 420 301 360 301C300 301 240 301 180 301C120 301 60 301 30 301L0 301Z" fill="#084c61"></path><path d="M0 200L30 191C60 182 120 164 180 151C240 138 300 130 360 133.5C420 137 480 152 540 151.8C600 151.7 660 136.3 720 134C780 131.7 840 142.3 870 147.7L900 153L900 301L870 301C840 301 780 301 720 301C660 301 600 301 540 301C480 301 420 301 360 301C300 301 240 301 180 301C120 301 60 301 30 301L0 301Z" fill="#07566a"></path><path d="M0 222L30 220.8C60 219.7 120 217.3 180 206.3C240 195.3 300 175.7 360 177.2C420 178.7 480 201.3 540 198.8C600 196.3 660 168.7 720 167.7C780 166.7 840 192.3 870 205.2L900 218L900 301L870 301C840 301 780 301 720 301C660 301 600 301 540 301C480 301 420 301 360 301C300 301 240 301 180 301C120 301 60 301 30 301L0 301Z" fill="#086072"></path><path d="M0 183L30 180.7C60 178.3 120 173.7 180 174.5C240 175.3 300 181.7 360 186.7C420 191.7 480 195.3 540 203C600 210.7 660 222.3 720 224C780 225.7 840 217.3 870 213.2L900 209L900 301L870 301C840 301 780 301 720 301C660 301 600 301 540 301C480 301 420 301 360 301C300 301 240 301 180 301C120 301 60 301 30 301L0 301Z" fill="#0b6a7a"></path><path d="M0 228L30 224.7C60 221.3 120 214.7 180 220.5C240 226.3 300 244.7 360 251C420 257.3 480 251.7 540 247.2C600 242.7 660 239.3 720 235.8C780 232.3 840 228.7 870 226.8L900 225L900 301L870 301C840 301 780 301 720 301C660 301 600 301 540 301C480 301 420 301 360 301C300 301 240 301 180 301C120 301 60 301 30 301L0 301Z" fill="#107482"></path><path d="M0 270L30 274C60 278 120 286 180 284.7C240 283.3 300 272.7 360 272.7C420 272.7 480 283.3 540 279C600 274.7 660 255.3 720 248.5C780 241.7 840 247.3 870 250.2L900 253L900 301L870 301C840 301 780 301 720 301C660 301 600 301 540 301C480 301 420 301 360 301C300 301 240 301 180 301C120 301 60 301 30 301L0 301Z" fill="#177e89"></path></svg>